<?xml version="1.0" standalone="no"?><!DOCTYPE svg PUBLIC "-//W3C//DTD SVG 1.1//EN" "http://www.w3.org/Graphics/SVG/1.1/DTD/svg11.dtd"><svg t="1566356060825" class="icon" viewBox="0 0 1024 1024" version="1.1" xmlns="http://www.w3.org/2000/svg" p-id="52322" xmlns:xlink="http://www.w3.org/1999/xlink" width="200" height="200"><defs><style type="text/css"></style></defs><path d="M752 240H144c-17.7 0-32 14.3-32 32v608c0 17.7 14.3 32 32 32h608c17.7 0 32-14.3 32-32V272c0-17.7-14.3-32-32-32zM596 606c0 4.4-3.6 8-8 8H308c-4.4 0-8-3.6-8-8v-48c0-4.4 3.6-8 8-8h280c4.4 0 8 3.6 8 8v48z" p-id="52323"></path><path d="M880 112H264c-4.4 0-8 3.6-8 8v56c0 4.4 3.6 8 8 8h576v576c0 4.4 3.6 8 8 8h56c4.4 0 8-3.6 8-8V144c0-17.7-14.3-32-32-32z" p-id="52324"></path></svg>