<?xml version="1.0" standalone="no"?><!DOCTYPE svg PUBLIC "-//W3C//DTD SVG 1.1//EN" "http://www.w3.org/Graphics/SVG/1.1/DTD/svg11.dtd"><svg t="1566355750731" class="icon" viewBox="0 0 1024 1024" version="1.1" xmlns="http://www.w3.org/2000/svg" p-id="27535" xmlns:xlink="http://www.w3.org/1999/xlink" width="200" height="200"><defs><style type="text/css"></style></defs><path d="M952 224h-52c-4.4 0-8 3.6-8 8v248h-92V304c0-4.4-3.6-8-8-8H232c-4.4 0-8 3.6-8 8v176h-92V232c0-4.4-3.6-8-8-8H72c-4.4 0-8 3.6-8 8v560c0 4.4 3.6 8 8 8h52c4.4 0 8-3.6 8-8V548h92v172c0 4.4 3.6 8 8 8h560c4.4 0 8-3.6 8-8V548h92v244c0 4.4 3.6 8 8 8h52c4.4 0 8-3.6 8-8V232c0-4.4-3.6-8-8-8zM296 368h88v288h-88V368z m432 288H448V368h280v288z" p-id="27536"></path></svg>