<?xml version="1.0" standalone="no"?><!DOCTYPE svg PUBLIC "-//W3C//DTD SVG 1.1//EN" "http://www.w3.org/Graphics/SVG/1.1/DTD/svg11.dtd"><svg t="1566356177875" class="icon" viewBox="0 0 1024 1024" version="1.1" xmlns="http://www.w3.org/2000/svg" p-id="60455" xmlns:xlink="http://www.w3.org/1999/xlink" width="200" height="200"><defs><style type="text/css"></style></defs><path d="M916 210H376c-17.7 0-32 14.3-32 32v236H108c-17.7 0-32 14.3-32 32v272c0 17.7 14.3 32 32 32h540c17.7 0 32-14.3 32-32V546h236c17.7 0 32-14.3 32-32V242c0-17.7-14.3-32-32-32zM612 746H412V546h200v200z m268-268H680V278h200v200z" p-id="60456"></path></svg>