<?xml version="1.0" standalone="no"?><!DOCTYPE svg PUBLIC "-//W3C//DTD SVG 1.1//EN" "http://www.w3.org/Graphics/SVG/1.1/DTD/svg11.dtd"><svg t="1591757632750" class="icon" viewBox="0 0 1024 1024" version="1.1" xmlns="http://www.w3.org/2000/svg" p-id="9312" xmlns:xlink="http://www.w3.org/1999/xlink" width="256" height="256"><defs><style type="text/css"></style></defs><path d="M618.74 778.76l160-160L186.66 26.66 30.44 0.28C12.84-2.24-2.24 12.84 0.28 30.44l26.4 156.22 592.06 592.1z m395.88 145.36L896 805.5l63.28-118.06c6.66-12.44 4.4-27.76-5.58-37.74l-35.08-35.06c-12.5-12.5-32.76-12.5-45.26 0L614.62 873.38c-12.5 12.5-12.5 32.76 0 45.24l35.06 35.08a32 32 0 0 0 37.74 5.58L805.5 896l118.62 118.62c12.5 12.5 32.76 12.5 45.26 0l45.24-45.24c12.5-12.5 12.5-32.76 0-45.26z m-17.28-737.46l26.4-156.22c2.52-17.6-12.58-32.68-30.16-30.16l-156.22 26.4-280.1 280.06 160 160L997.34 186.66z m-690.6 370.6L200 664l-49.38-49.38c-12.5-12.5-32.76-12.5-45.24 0l-35.08 35.06a31.996 31.996 0 0 0-5.58 37.74L128 805.5 9.38 924.12c-12.5 12.5-12.5 32.76 0 45.26l45.24 45.24c12.5 12.5 32.76 12.5 45.26 0L218.5 896l118.06 63.28c12.44 6.66 27.76 4.4 37.74-5.58l35.06-35.08c12.5-12.5 12.5-32.76 0-45.24L360 824l106.74-106.74-160-160z" p-id="9313"></path></svg>