<?xml version="1.0" standalone="no"?><!DOCTYPE svg PUBLIC "-//W3C//DTD SVG 1.1//EN" "http://www.w3.org/Graphics/SVG/1.1/DTD/svg11.dtd"><svg t="1566356173598" class="icon" viewBox="0 0 1024 1024" version="1.1" xmlns="http://www.w3.org/2000/svg" p-id="60207" xmlns:xlink="http://www.w3.org/1999/xlink" width="200" height="200"><defs><style type="text/css"></style></defs><path d="M408 312h48c4.4 0 8-3.6 8-8v-48c0-4.4-3.6-8-8-8h-48c-4.4 0-8 3.6-8 8v48c0 4.4 3.6 8 8 8z" p-id="60208"></path><path d="M760 432V144c0-17.7-14.3-32-32-32H296c-17.7 0-32 14.3-32 32v288c-66.2 0-120 52.1-120 116v356c0 4.4 3.6 8 8 8h720c4.4 0 8-3.6 8-8V548c0-63.9-53.8-116-120-116z m-72 0H336V184h352v248z" p-id="60209"></path><path d="M568 312h48c4.4 0 8-3.6 8-8v-48c0-4.4-3.6-8-8-8h-48c-4.4 0-8 3.6-8 8v48c0 4.4 3.6 8 8 8z" p-id="60210"></path></svg>